<svg xmlns="http://www.w3.org/2000/svg" width="38" height="38" viewBox="1453 1374.95 38 38"><g data-name="Icon"><path d="M1453 1393.9a19 19 0 1 1 0 .1z" fill="#daf7e8" fill-rule="evenodd" data-name="Icon.BG"/><path d="M1476.601 1399.001c-1.3 1.3-3.1 2-4.9 2-1.8 0-3.5-.601-4.9-2-1-1-1.7-2.301-1.9-3.8l2-.301c.2 1 .7 2.001 1.399 2.7 1.9 1.9 5.1 1.9 7 0l-2.1-2.099 6.4-.701-.8 6.401-2.199-2.2ZM1464.7 1387l2.201 2.2c2.8-2.7 7.2-2.7 9.9 0 1 1 1.7 2.301 1.9 3.8l-2 .301c-.2-1-.699-2-1.4-2.7-1.9-1.9-5.1-1.9-7.001 0l2.101 2.1-6.4.7.699-6.401Z" fill="#4ad991" fill-rule="evenodd" data-name="Process"/></g></svg>