<svg xmlns="http://www.w3.org/2000/svg" width="330.499" height="213" viewBox="1441.251 332.999 330.499 213"><g data-name="Mask Group 204" transform="translate(0 8)" clip-path="url(&quot;#a&quot;)"><g data-name="Layer_x0020_1"><path d="M1461.544 326.703h289.912a20.293 20.293 0 0 1 20.293 20.293v170.71A20.293 20.293 0 0 1 1751.456 538h-289.912a20.293 20.293 0 0 1-20.293-20.293v-170.71a20.293 20.293 0 0 1 20.293-20.293z" fill="#898989" fill-rule="evenodd" data-name="Rectangle 23839"/><path d="M20.293 0h289.912A20.293 20.293 0 0 1 330.5 20.293v170.71a20.293 20.293 0 0 1-20.294 20.293H20.293A20.293 20.293 0 0 1 0 191.003V20.293A20.293 20.293 0 0 1 20.293 0z" fill-rule="evenodd" fill="url(&quot;#b&quot;)" transform="translate(1441.25 325)" data-name="Rectangle 23840"/><path d="M22.927 276.823h106.035l82.644-211.296H23.004c-11.153 0-20.293 9.14-20.293 20.293v170.71c0 11.153 9.14 20.293 20.293 20.293h-.077Z" fill-rule="evenodd" fill="url(&quot;#c&quot;)" transform="translate(1438.617 259.473)" data-name="Path 93421"/><g data-name="_456293328"><path d="M1483.928 368.451c-.387-.542-.774-1.471-1.084-2.091-1.085-2.169-3.796-5.577-5.5-6.971-1.471-1.24-3.64-3.02-5.421-3.718.077.465.31 1.162.464 1.627l7.281 26.257h9.372l10.379-24.089c.465-1.084 3.176-7.125 3.408-8.055h-9.372l-8.365 21.378c-.155.232-.078.155-.232.31-.078-.543-.852-4.26-1.007-4.57l.077-.078Zm73.892-8.055c0 .852.93 4.725 1.162 5.886.464 1.86.852 3.873 1.316 5.81h-7.048l4.57-11.696Zm-17.892 23.314c10.224 0 8.442.774 9.682-2.324.31-.852.62-1.859 1.006-2.633h11.154c.077.852.387 1.704.542 2.556.232 1.084.31 2.323.93 2.323 8.752 0 7.9.542 7.435-1.704-.155-.774-.232-1.239-.465-2.014-.31-1.394-.62-2.71-.929-4.027l-3.64-16.42c-.543-2.711-1.162-5.5-1.86-8.21-2.245 0-8.21-.465-9.913.774-1.627 1.24-2.944 5.034-3.718 6.893a320.963 320.963 0 0 0-2.246 5.035 92.986 92.986 0 0 1-2.17 4.88c-1.703 3.717-4.414 10.533-6.118 13.786-.232.465-.62.93.155.93l.155.155Zm-21.223-22.694v1.006c0 3.718 4.26 6.739 7.049 7.9.697.31 1.394.62 2.09 1.008 7.591 4.105-.309 8.675-9.449 5.034-.464-.232-1.626-.774-2.168-.774-.078 1.007-.388 2.4-.62 3.485l-.542 3.563c0 .852 7.048 1.782 8.675 1.782 4.724 0 8.287-.31 11.928-2.789 4.88-3.33 7.126-10.998-.542-15.646-2.789-1.704-7.281-2.865-7.281-5.344 0-3.253 8.055-3.253 12.315-1.007.078-1.317 1.162-5.577 1.162-7.048-2.401-1.162-5.964-1.317-8.907-1.317-6.274 0-13.787 3.795-13.787 10.147h.077Zm-17.892 22.461h8.83l4.725-28.116c.077-.697.232-1.316.31-1.936.154-.697.31-1.317.31-2.169h-8.83c0 1.085-4.26 25.018-4.725 28.116l-.697 4.105h.077Z" fill="#2b2a29" fill-rule="evenodd" data-name="Path 93422"/><path d="M1472 355.594c1.782.774 3.95 2.556 5.422 3.718 1.704 1.394 4.415 4.802 5.5 6.97.309.62.696 1.55 1.084 2.092 0-.93-2.092-10.224-2.402-11.928-1.084-5.422-1.394-5.19-9.062-5.19h-9.682v.542c0 .388.31.31 1.937.775 1.859.542 5.809 2.091 7.203 3.02Z" fill="#2b2a29" fill-rule="evenodd" data-name="Path 93423"/></g><path d="M1483.618 368.064c-.387-.542-.774-1.472-1.084-2.091-1.084-2.17-3.795-5.577-5.5-6.971-1.471-1.24-3.64-3.021-5.421-3.718.077.465.31 1.162.465 1.626l7.28 26.258h9.372l10.38-24.089c.464-1.084 3.175-7.126 3.407-8.055h-9.372l-8.365 21.377c-.155.233-.077.155-.232.31-.078-.542-.852-4.26-1.007-4.57l.077-.077Zm73.892-8.055c0 .852.93 4.724 1.162 5.886.464 1.86.852 3.873 1.316 5.81h-7.048l4.57-11.696Zm-17.892 23.313c10.224 0 8.442.775 9.682-2.323.31-.852.62-1.86 1.007-2.634h11.153c.078.852.387 1.704.542 2.556.233 1.085.31 2.324.93 2.324 8.752 0 7.9.542 7.435-1.704-.155-.775-.232-1.24-.464-2.014-.31-1.394-.62-2.71-.93-4.027l-3.64-16.42c-.542-2.712-1.162-5.5-1.782-8.211-2.246 0-8.21-.465-9.914.775-1.626 1.239-2.943 5.034-3.718 6.893a320.996 320.996 0 0 0-2.246 5.035 92.98 92.98 0 0 1-2.169 4.88c-1.704 3.717-4.414 10.533-6.118 13.786-.233.465-.62.93.154.93l.078.154Zm-21.223-22.694v1.007c0 3.718 4.26 6.739 7.049 7.9.697.31 1.394.62 2.091 1.007 7.59 4.106-.31 8.675-9.45 5.035-.464-.232-1.626-.775-2.168-.775-.078 1.007-.387 2.402-.62 3.486l-.542 3.563c0 .852 7.048 1.781 8.675 1.781 4.725 0 8.288-.31 11.928-2.788 4.88-3.33 7.126-10.999-.542-15.646-2.789-1.704-7.281-2.866-7.281-5.344 0-3.253 8.055-3.253 12.315-1.007.078-1.317 1.162-5.577 1.162-7.049-2.401-1.161-5.964-1.316-8.907-1.316-6.274 0-13.787 3.795-13.787 10.146h.077Zm-17.892 22.462h8.908l4.724-28.116c.078-.697.233-1.317.31-1.936.155-.697.31-1.317.31-2.169h-8.83c0 1.084-4.26 25.018-4.725 28.116l-.697 4.105Z" fill="#fefefe" fill-rule="evenodd" data-name="Path 93424"/><path d="M1471.613 355.284c1.781.774 3.95 2.556 5.422 3.718 1.704 1.394 4.415 4.802 5.499 6.97.31.62.697 1.55 1.084 2.092 0-.93-2.091-10.224-2.4-11.928-1.085-5.422-1.395-5.19-9.063-5.19h-9.682v.543c0 .387.31.31 1.937.774 1.858.542 5.809 2.091 7.203 3.02Z" fill="#c5c6c6" fill-rule="evenodd" data-name="Path 93425"/><g data-name="_456341392"><path d="m1675.24 484.4.466-2.013c2.556-.62 6.35-.93 7.28 1.471.31.93-.852 6.662-.93 8.443h-2.478c-.077-.542.078-.62-.077-1.007-.62.387-1.704 1.627-3.795 1.162-2.866-.62-2.711-4.88.232-6.119 1.317-.542 3.098-.542 4.647-.542-.077-2.401-3.175-1.627-5.344-1.24v-.154Zm7.979 5.577c.93.233 5.112 1.007 4.647-.852-.232-1.084-2.866-1.161-3.563-2.556-.852-1.626.155-3.485 1.317-4.105 1.394-.697 3.795-.387 5.499-.31l-.465 2.092c-1.471-.078-3.175-.62-3.718.62-.232 1.626 5.035 1.239 3.408 5.576-.542 1.394-1.316 1.704-2.943 1.859-1.781.232-2.71.077-4.337-.155l.155-2.169Zm-10.844 2.324h-2.71c.309-1.704.619-3.33.929-5.035.232-1.316.774-4.027.774-5.189l-4.337 10.224h-2.401l-.698-10.147c-.464.775-1.704 8.52-1.936 10.07l-2.478.077c.697-4.183 1.858-8.288 2.323-12.548.852-.232 3.408-.077 4.415-.077l.155 8.133c.62-.465 1.472-3.176 1.859-3.95.542-1.24 1.317-2.944 1.704-4.183h4.57c-.697 4.028-1.86 8.442-2.169 12.625Zm31.524 14.252c.387-.775.93-.62 1.24-1.395-.62 0-2.17.078-2.557-.077-.464-.155-1.084-1.007-1.316-1.394h4.337c1.162 0 .93.077 1.472-.62.387-.542.697-.697.93-1.24h-8.443l-.775-1.393 10.301-.078c.31-.62.852-1.162 1.007-1.936h-12.392l-.697-1.472h14.019l.774-1.859h-15.336c-.464-.232-.542-1.007-.697-1.471l16.576-.078.542-1.859h-4.415l-.155.465c-.542.387-2.169.155-2.943.155.464-3.33 1.394-6.429 1.781-10.224h2.556l-.155 1.472c.93-.465.387-1.395 3.176-1.472l-1.007 2.788c-1.627 0-2.091.465-2.479 1.937h2.866l.233-.697c.232-1.704.464-2.092 1.006-3.486l-.077-1.162c-.775-.155-16.963-.155-17.97 0l-.077.543 1.55.077c-.078 2.324-.31 2.246-.853 2.324h-1.162l-.387 2.246 2.014.077c1.626-6.66 7.436-5.112 8.675-2.943.465.852.542 2.246.31 3.253-.31 1.472 0 1.007-6.43 1.007-.309 1.394.853 2.091 1.937 2.246 1.627.31 2.556-.31 3.873-.62l-.387 2.324c-1.394.62-3.796.697-5.267.233-1.704-.543-2.324-1.55-2.866-3.254-.077-.154-.077-.077-.155-.464v-.31h-2.014c-.232.774-.232 1.317.078 1.859l1.626.077-.542 2.092c-.852.542-3.098.464-3.795-.31-1.007-1.085.31-6.197.697-8.056.232-1.161.465-3.02.697-4.105h2.169c.697.078.31-.155.464.233h17.428c0-.542-.31-1.472-.465-1.937h-17.04c.077-.542.155-1.239.62-1.471h15.955l-.542-1.86h-14.871l.542-1.47h13.555l-.93-1.86h-11.696c.155-.464.62-1.316 1.085-1.549h9.604c-.387-.62-.93-1.317-1.317-1.859h-7.125c.31-.542.697-1.084 1.084-1.471h4.26c-.542-1.007-1.627-1.627-2.091-2.401-.388-.078-2.479-1.86-2.944-2.17-2.865-1.858-5.499-3.02-8.83-3.872-8.52-2.169-17.35-.542-24.088 5.035-3.563 2.943-6.119 5.731-8.21 9.991-.62 1.24-1.007 2.246-1.549 3.563-2.091 5.345-1.781 12.548 0 17.737.232.697.465 1.24.697 1.86.387 1.084 2.091 4.182 2.788 5.111 1.86 2.556 3.563 4.647 6.197 6.584 3.175 2.4 4.957 3.175 8.52 4.57.62.232 1.317.387 1.936.542 6.042 1.549 13.942.852 19.364-2.091.62-.31 1.007-.543 1.626-.852.543-.31 1.007-.62 1.627-1.007.93-.543 2.091-1.627 3.02-2.247l.233-.31Z" fill="#e63d24" fill-rule="evenodd" data-name="Path 93426"/><path d="M1749.984 490.752c.775.62-.31 2.169-1.239 1.704l-.465-.31v-.155l.078-1.394c-.465.465-.31.93-.465.697l-.155.155c.155-2.014 2.169-1.55 2.169-.697h.077Zm-26.334 23.314h-1.007c-1.627 0-3.253-.155-4.802-.465-3.176-.542-6.971-2.014-9.527-3.718-.62-.387-1.084-.62-1.627-1.007-.697-.542-2.323-1.626-2.865-2.323.387-.775.929-.62 1.239-1.395-.62 0-2.169.078-2.556-.077-.465-.155-1.085-1.007-1.317-1.394h4.338c1.161 0 .929.077 1.471-.62.387-.542.697-.697.93-1.24h-8.443l-.774-1.393 10.301-.078c.31-.62.852-1.162 1.007-1.936h-12.393l-.697-1.472h14.02l.774-1.859h-15.336c-.465-.232-.542-1.007-.697-1.471l16.575-.078.542-1.859h-4.415l-.155.465.388-2.246c.31.232-.078.077.387.232h4.028c.852 1.86 4.647 3.176 7.203 1.937.155-1.317.387-1.627.542-2.556-1.626.31-2.633 1.084-4.415.077-1.162-.697-1.626-2.169-1.24-3.795.62-2.556 1.86-3.795 4.416-3.563 1.162.077 1.394.387 2.323.542l.31-2.324c-1.394-1.084-4.957-1.239-7.358.62-.93.697-.852 1.084-1.549 1.782l-.077-1.162c-.775-.155-16.963-.155-17.97 0l.31-1.55h17.427c0-.542-.31-1.471-.465-1.936h-17.04c.078-.542.155-1.239.62-1.471h15.956l-.542-1.86h-14.872l.542-1.47h13.555l-.93-1.86h-11.695c.155-.465.62-1.317 1.084-1.549h9.605c-.388-.62-.93-1.317-1.317-1.859h-7.126c.31-.542.697-1.084 1.084-1.471h4.26c-.542-1.007-1.626-1.627-2.09-2.402l2.942-2.323c.543-.387 1.007-.697 1.627-1.007 1.781-1.162 3.33-1.859 5.344-2.556 3.408-1.24 8.056-2.014 11.541-1.627 6.042.62 12.393 2.944 16.808 7.049 2.478 2.323 4.26 4.337 5.964 7.203 2.556 4.26 4.027 9.14 4.027 14.484 0 4.957-.774 7.203-2.168 11.076-.388 1.162-2.014 4.028-2.789 5.112-1.781 2.556-4.027 4.957-6.428 6.739-3.099 2.323-4.958 3.253-8.675 4.57l-3.176.851c-.387.078-.852.078-1.084.155-1.317.233-2.634.31-3.95.388l.077-.31Zm6.196-23.16-.077 1.395-2.556-.077-.078-.852c-.62.387-.697.697-1.704.929-5.19 1.394-6.119-5.81.233-6.274h1.781l.542-.232c.62-2.479-3.717-1.394-5.112-1.24.388-2.013.155-2.788 4.57-2.555 5.345.31 2.324 6.35 2.324 8.984l.077-.077Zm.852 1.318c.542-3.331 1.55-6.739 1.86-10.224h2.555l-.077 1.471c.697-.465 1.162-1.549 3.175-1.471-.31 1.084-.697 1.239-.93 2.788-2.245.077-2.4.62-2.865 2.788a72.595 72.595 0 0 0-.774 4.648h-2.944Zm14.174-8.985c.388-.62.62-2.789.698-3.64h2.943c-.542 3.407-2.014 9.294-2.246 12.625h-2.789l.078-1.085-.078.078-.852.62c-2.478 1.316-5.499.077-5.499-3.719 0-5.421 4.492-6.97 6.739-5.654.464.31.542.542 1.006.852v-.077Z" fill="#ef7f1a" fill-rule="evenodd" data-name="Path 93427"/><path d="M1672.375 492.301c.31-4.183 1.472-8.597 2.169-12.625h-4.57c-.387 1.24-1.162 2.943-1.704 4.182-.31.775-1.24 3.486-1.859 3.95l-.155-8.132c-1.084 0-3.563-.155-4.415.077-.542 4.26-1.626 8.365-2.323 12.548l2.478-.077c.155-1.55 1.472-9.295 1.936-10.07l.698 10.147h2.4l4.338-10.224c0 1.162-.542 3.873-.774 5.19-.233 1.703-.62 3.33-.93 5.034h2.711Zm67.54-4.725c0-3.718 4.338-4.57 4.338-1.394 0 4.492-4.338 5.112-4.338 1.55v-.156Zm5.035-4.337c-.465-.233-.542-.542-1.007-.852-2.246-1.317-6.739.155-6.739 5.654 0 3.795 3.021 5.035 5.5 3.718l.852-.62.077-.077-.077 1.084h2.788c.232-3.33 1.627-9.14 2.246-12.625h-2.943c-.155.852-.387 2.943-.697 3.64v.078Zm-65.062 4.337c.31.852-.31 1.937-.774 2.324-1.937 1.472-3.95-.852-1.86-2.014.698-.387 1.705-.465 2.634-.31Zm-4.57-3.175c2.169-.388 5.267-1.162 5.345 1.239-1.55 0-3.408 0-4.648.542-2.865 1.24-3.02 5.5-.232 6.119 2.014.465 3.176-.775 3.795-1.162.155.465 0 .465.078 1.007h2.478c.078-1.704 1.24-7.513.93-8.442-.93-2.402-4.725-2.092-7.281-1.472l-.465 2.014v.155Zm52.36 3.408c-.078 1.471-1.162 3.253-2.944 2.556-1.007-.388-1.471-2.944 2.944-2.556Zm-.465 3.563c.232.31.155.232.155.852h2.323c-.077-.543-.077-.852.155-1.24 0-2.556 3.021-8.675-2.323-8.984-4.415-.233-4.26.542-4.57 2.556 1.394-.155 5.731-1.24 5.112 1.239l-.542.232h-1.782c-6.351.465-5.422 7.746-.232 6.274 1.007-.31 1.084-.542 1.704-.93Zm-27.884-5.422c0-2.401 3.64-2.634 3.563-.078-.852.233-2.633.155-3.563.078Zm-2.866.774-.077 2.169c.542 1.781 1.162 2.71 2.866 3.253 1.471.465 3.872.387 5.267-.232l.387-2.324c-1.317.387-2.246.93-3.873.62-1.084-.155-2.323-.852-1.936-2.246 6.506 0 6.119.464 6.429-1.007.232-1.007.232-2.401-.31-3.253-1.24-2.17-7.049-3.718-8.675 2.943l-.078.077Z" fill="#fefcfd" fill-rule="evenodd" data-name="Path 93428"/><path d="M1713.426 482.62c-.542 1.393-.775 1.78-1.007 3.485l.077 2.168.62 1.782c.852 1.859 4.647 3.175 7.203 1.936.155-1.317.388-1.626.543-2.556-1.627.31-2.634 1.085-4.415.078-1.162-.697-1.627-2.17-1.24-3.796.62-2.556 1.86-3.795 4.415-3.563 1.162.078 1.394.388 2.324.543l.31-2.324c-1.394-1.084-4.957-1.24-7.358.62-.93.697-.852 1.084-1.55 1.781l.078-.155Zm-30.207 7.357-.155 2.17c1.704.231 2.556.386 4.337.154 1.627-.232 2.479-.542 2.943-1.859 1.627-4.337-3.64-3.95-3.408-5.577.543-1.239 2.247-.697 3.718-.62l.465-2.09c-1.704-.078-4.105-.465-5.5.31-1.161.619-2.168 2.555-1.316 4.104.697 1.395 3.33 1.472 3.563 2.556.465 1.937-3.64 1.085-4.647.852Zm10.998-1.936.233-1.472.387-2.246c.31 0 .93.078 1.162 0 .542-.077.697 0 .852-2.323l-1.55-.078.078-.542.31-1.55c-.155-.386.232-.154-.465-.232h-2.169c-.31 1.007-.464 2.866-.697 4.106-.387 1.936-1.704 7.048-.697 8.055.697.697 2.943.852 3.795.31l.543-2.092-1.627-.077c-.387-.542-.31-1.084-.077-1.859h-.078Zm14.097 4.105.387-2.246.31-1.627.31-1.549c.387-1.471.852-1.936 2.478-1.936l1.007-2.788c-2.71.077-2.168 1.006-3.175 1.471l.155-1.471h-2.556c-.388 3.795-1.317 6.893-1.782 10.224.775 0 2.401.232 2.943-.155l-.077.077Zm22.462.155h2.943c.232-1.704.542-3.098.775-4.647.387-2.169.62-2.634 2.865-2.789.155-1.549.62-1.704.93-2.788-2.014-.077-2.479.93-3.176 1.472l.078-1.472h-2.556c-.31 3.485-1.317 6.893-1.86 10.224Z" fill="#fefcfd" fill-rule="evenodd" data-name="Path 93429"/><path d="M1739.915 487.576v.155c0 3.563 4.338 2.943 4.338-1.549 0-3.176-4.338-2.324-4.338 1.394Z" fill="#ef7f1a" fill-rule="evenodd" data-name="Path 93430"/><path d="M1679.888 487.576c-.93-.155-1.936-.077-2.633.31-2.092 1.162-.078 3.486 1.859 2.014.464-.387 1.084-1.472.774-2.324Z" fill="#e63d24" fill-rule="evenodd" data-name="Path 93431"/><path d="M1727.678 487.809c-4.415-.465-3.95 2.09-2.944 2.556 1.782.697 2.866-1.007 2.944-2.556Z" fill="#ef7f1a" fill-rule="evenodd" data-name="Path 93432"/><path d="M1708.624 489.9c.31.232-.078.077.387.232h4.028l-.62-1.781h-3.485l-.31 1.626v-.077Zm-9.295-3.95c.93.077 2.711.232 3.563-.078.078-2.556-3.485-2.323-3.563.078Z" fill="#e63d24" fill-rule="evenodd" data-name="Path 93433"/><path d="m1709.32 486.724-.309 1.55h3.408v-2.17l-.232.698-2.866-.078Zm-15.103 1.317h2.014v.31c.077.387.077.31.155.465l.077-2.17-2.013-.077-.233 1.472Z" fill="#ed7b1b" fill-rule="evenodd" data-name="Path 93434"/><path d="M1748.745 492.456c-.387-.387.465 0-.31-.31l.233-.155-.233-1.394.93.155.232-.078.078-.077c0 .387-.078.232.31.155-.078-.852-2.014-1.317-2.17.697.078-.077.078-.155.156-.155.232.31 0-.232.464-.697l-.077 1.394v.155l.465.31h-.078Z" fill="#f9bd84" fill-rule="evenodd" data-name="Path 93435"/><path d="M1749.365 490.752c0 .31.077.542-.387.542-.465-.077-.31-.155-.31-.62l.697.078Zm-.697 1.24v-.543c.774.077.232-.155.62.31.154.232.232.387.387.542l-.93.155c.93.465 2.091-1.084 1.24-1.704 0 .31.077.465 0 .697-.078.387-.078.31-.233.542-.62-.697-.077-.387-.155-1.317l-.232.078-.93-.155.233 1.394Z" fill="#fde6cd" fill-rule="evenodd" data-name="Path 93436"/><path d="m1748.668 492.069-.233.155c.775.31-.077-.078.31.31l.93-.156a1.788 1.788 0 0 0-.388-.542c-.387-.387.155-.232-.62-.31v.543Z" fill="#f0811a" fill-rule="evenodd" data-name="Path 93437"/><path d="m1727.213 491.294.077.852 2.556.078.078-1.395c-.233.388-.233.697-.155 1.24h-2.324c0-.62 0-.543-.155-.852l-.077.077Z" fill="#fbca9a" fill-rule="evenodd" data-name="Path 93438"/><path d="M1749.984 490.752c-.387.077-.31.232-.31-.155l-.077.077c.078.93-.465.543.155 1.317.155-.232.232-.077.232-.542v-.697Z" fill="#f0811a" fill-rule="evenodd" data-name="Path 93439"/><path d="m1749.365 490.752-.697-.078c0 .465-.155.543.31.62.464.078.387-.232.387-.542Z" fill="#f0831f" fill-rule="evenodd" data-name="Path 93440"/></g></g></g><defs><linearGradient x1=".5" y1="1" x2=".5" y2="0" id="b"><stop stop-color="#e5097f" offset="0"/><stop stop-color="#96336d" offset="1"/></linearGradient><linearGradient x1=".401" y1="-.027" x2=".599" y2="1.026" id="c"><stop stop-color="#e8388c" offset="0"/><stop stop-color="#97326d" offset="1"/></linearGradient><clipPath id="a"><path d="M0 0h367v213H0V0z" data-name="Rectangle 23838" transform="translate(1423 325)"/></clipPath></defs></svg>