<svg xmlns="http://www.w3.org/2000/svg" width="27.869" height="24.768" viewBox="1117.467 1460.702 27.869 24.768"><path d="m1136.946 1464.723 4.365 4.364a.473.473 0 0 1 0 .668l-10.567 10.567-4.49.499a.941.941 0 0 1-1.04-1.04l.498-4.49 10.567-10.568a.473.473 0 0 1 .667 0Zm7.839-1.108-2.361-2.361a1.892 1.892 0 0 0-2.671 0l-1.713 1.713a.473.473 0 0 0 0 .667l4.364 4.365a.473.473 0 0 0 .668 0l1.713-1.713a1.892 1.892 0 0 0 0-2.67Zm-8.739 13.833v4.926h-15.483v-15.483h11.12c.154 0 .3-.063.41-.17l1.936-1.935a.58.58 0 0 0-.411-.992h-13.829a2.323 2.323 0 0 0-2.322 2.323v17.031a2.323 2.323 0 0 0 2.322 2.322h17.032a2.323 2.323 0 0 0 2.322-2.322v-7.635a.582.582 0 0 0-.992-.411l-1.935 1.935a.595.595 0 0 0-.17.411Z" fill="rgba(255,156,70,0.57 )" fill-rule="evenodd" data-name="Icon awesome-edit"/></svg>