<svg xmlns="http://www.w3.org/2000/svg" width="38" height="38" viewBox="1453 1293.95 38 38"><g data-name="Icon"><path d="M1453 1312.9a19 19 0 1 1 0 .1z" fill="#e8e7ff" fill-rule="evenodd" data-name="Icon.BG"/><path d="M-6877-1838v-2h-2v-2h2v-2h2v2h1.999v2H-6875v2h-2Zm-12 0v-1c0-2.8 2.2-5 5-5h3v2h-3c-1.3 0-2.4.8-2.8 2h5.8v2h-8Zm3-11v-1c0-2.2 1.8-4 4-4s3.999 1.8 3.999 4v1c0 2.2-1.8 4-3.999 4a4.011 4.011 0 0 1-4-4Zm2-1v1c0 1.1.9 2 2 2s2-.9 2-2v-1c0-1.1-.9-2-2-2s-2 .9-2 2Z" fill-rule="evenodd" fill="url(&quot;#a&quot;)" transform="translate(8353 3159)" data-name="New customer Icon"/></g><defs><linearGradient x1="0" y1="0" x2="0" y2="1" id="a"><stop stop-color="#8280ff" offset="0"/><stop stop-color="#7e96ff" offset="1"/></linearGradient></defs></svg>